/* XPM */
static char *_7dc9865178e41c0ccd1d7534d3aa0886dMkHHBgNZhk3g09[] = {
/* columns rows colors chars-per-pixel */
"32 32 161 2 ",
"   c #195716",
".  c #1B5812",
"X  c #29671E",
"o  c #276222",
"O  c #296423",
"+  c #286228",
"@  c #316A23",
"#  c #386E23",
"$  c #336A2A",
"%  c #377125",
"&  c #367B2B",
"*  c #44791A",
"=  c #407621",
"-  c #44762F",
";  c #447A2A",
":  c #487D2D",
">  c #447641",
",  c #4D7D4A",
"<  c #9D6F21",
"1  c #E56905",
"2  c #E86E09",
"3  c #E16505",
"4  c #E97307",
"5  c #E7710D",
"6  c #E9730E",
"7  c #EC7C0C",
"8  c #E36E11",
"9  c #E77514",
"0  c #EB7712",
"q  c #EA7A15",
"w  c #E47519",
"e  c #E67E1F",
"r  c #EC7C1C",
"t  c #EB751E",
"y  c #4F8027",
"u  c #55862C",
"i  c #5B912F",
"p  c #5A8936",
"a  c #59853A",
"s  c #5B8A3B",
"d  c #778B3C",
"f  c #659635",
"g  c #6B9B35",
"h  c #68963E",
"j  c #6C9C3B",
"k  c #66943C",
"l  c #74A23F",
"z  c #5B8D40",
"x  c #5C8855",
"c  c #5A8558",
"v  c #558354",
"b  c #618C45",
"n  c #659242",
"m  c #6E9B45",
"M  c #6E964D",
"N  c #6B9644",
"B  c #719F43",
"V  c #668E59",
"C  c #74A145",
"Z  c #78A347",
"A  c #77A449",
"S  c #7BA74C",
"D  c #7FA954",
"F  c #6A9069",
"G  c #709768",
"H  c #7B9E7D",
"J  c #7EA360",
"K  c #EF8A16",
"L  c #E7821C",
"P  c #EB811B",
"I  c #EC8A1D",
"U  c #F98F1F",
"Y  c #F4991F",
"T  c #F2951C",
"R  c #ED8424",
"E  c #EC8C22",
"W  c #F08920",
"Q  c #EF9120",
"!  c #F29323",
"~  c #F49A26",
"^  c #F29729",
"/  c #F39A2B",
"(  c #EF8F3B",
")  c #EF943B",
"_  c #F6A131",
"`  c #F8A032",
"'  c #F7A739",
"]  c #F8A638",
"[  c #F7A93D",
"{  c #F8A839",
"}  c #82AD55",
"|  c #84AE5A",
" . c #8FB466",
".. c #90AF76",
"X. c #95B278",
"o. c #9EBE7B",
"O. c #ED9042",
"+. c #EC9A46",
"@. c #F09B4A",
"#. c #ED9E53",
"$. c #FAAB42",
"%. c #F9B14D",
"&. c #EFA055",
"*. c #EEA05E",
"=. c #F7B054",
"-. c #F9B454",
";. c #F8B75B",
":. c #FAB955",
">. c #EEA369",
",. c #F4AD6B",
"<. c #F9B561",
"1. c #F6BC72",
"2. c #F9BB72",
"3. c #87A586",
"4. c #94B394",
"5. c #A3BF8F",
"6. c #A7BCA9",
"7. c #A9BEAD",
"8. c #A4BCA6",
"9. c #A6C488",
"0. c #ADCA90",
"q. c #ACC397",
"w. c #B6CD9A",
"e. c #B7CAAA",
"r. c #BCD2A4",
"t. c #B6C8B8",
"y. c #BACCBB",
"u. c #BDD0BD",
"i. c #F9C685",
"p. c #F6C398",
"a. c #C6D8AE",
"s. c #C0D3B5",
"d. c #C6D9B1",
"f. c #FAD4A5",
"g. c #F9D8B5",
"h. c #F9D9BD",
"j. c #D1E1BC",
"k. c #CDD9C1",
"l. c #D1DFC8",
"z. c #D1DBC2",
"x. c #FADCC5",
"c. c #F6DCC3",
"v. c #D6E6C1",
"b. c #D7E3CD",
"n. c #D2E0D1",
"m. c #DAE6D1",
"M. c #FAE6CE",
"N. c #E0E9D4",
"B. c #E4EDDA",
"V. c #FBE8D4",
"C. c #E9F1DC",
"Z. c #E4EAE0",
"A. c #E9EEE4",
"S. c #EBF2E4",
"D. c #EDF3EA",
"F. c #FCF3E5",
"G. c #FFF5EA",
"H. c #FEF7F1",
"J. c #F5F9F3",
"K. c #FCF9F4",
"L. c #FFFFFE",
/* pixels */
"L.L.L.L.L.L.L.L.L.L.L.L.L.L.L.L.L.L.L.L.L.L.L.L.L.L.L.L.L.L.L.L.",
"L.L.L.L.L.L.L.L.L.L.L.L.L.L.L.B.S.L.L.L.L.L.L.L.L.L.L.L.L.L.L.L.",
"L.L.L.L.L.L.L.L.L.L.L.L.L.L.D.A l a.L.L.L.L.L.L.L.L.L.L.L.L.L.L.",
"L.L.L.L.L.L.L.L.L.L.L.L.L.L.K.| C j d.L.L.D.n.L.L.L.L.L.L.L.L.L.",
"L.L.L.L.L.L.L.L.L.L.L.L.L.L.L.r.g m C A.L.y.  u.L.L.L.L.L.L.L.L.",
"L.L.L.L.L.L.L.L.L.L.L.L.L.L.L.L. .h f 0.L.Z.O > K.L.L.L.L.L.L.L.",
"L.L.L.L.L.L.L.L.L.L.L.L.L.L.L.S.d.Z k D o.L.x $ c 4.L.L.L.L.L.L.",
"L.L.L.L.L.L.L.L.L.L.L.L.L.L.L.} S D j m g C.3.# o v L.L.L.L.L.L.",
"L.L.L.L.L.L.L.L.L.L.L.L.L.L.L.d.g B n z f v.6.% $ F L.L.L.L.L.L.",
"L.L.L.L.L.L.L.L.L.L.L.L.L.L.L.L.w.j C N f j.7.o o t.L.J.L.L.L.L.",
"L.L.L.L.L.L.L.L.L.L.L.L.L.L.L.L.L.w.B z i v.3.@ $ H m.M L.L.L.L.",
"L.L.L.L.L.L.L.L.L.L.L.L.L.L.L.L.L.9.l m B s., ; . 8.q.p 5.l.L.L.",
"L.L.L.L.L.L.L.L.L.L.L.L.L.L.L.L.L.N.S j } G X , y.b.p p * k.L.L.",
"L.L.L.L.L.L.L.L.L.L.L.L.L.L.L.L.L.L.m.l n + V e.X.; : * ..L.L.L.",
"L.L.L.L.L.L.L.L.L.L.L.L.L.L.L.L.L.F.F. .$ - s = = : u q.L.L.L.L.",
"L.L.L.L.L.L.L.L.L.L.L.L.L.L.L.G.2.` ! d & y a b s u J L.L.L.L.L.",
"L.L.L.L.L.L.L.L.L.L.L.L.L.L.h./ Y ~ U < d z.J.K.D.A.L.L.L.L.L.L.",
"L.L.L.L.L.L.L.L.L.L.L.L.L.f./ L / _ ~ P t G.L.L.L.L.L.L.L.L.L.L.",
"L.L.L.L.L.L.L.L.L.L.L.L.i.' :.! I _ / P 2 c.L.L.L.L.L.L.L.L.L.L.",
"L.L.L.L.L.L.L.L.L.L.L.1.{ -./ ~ ~ ~ ! 9 r F.L.L.L.L.L.L.L.L.L.L.",
"L.L.L.L.L.L.L.L.L.L.<.] %.~ ! ~ E E r 6 ,.L.L.L.L.L.L.L.L.L.L.L.",
"L.L.L.L.L.L.L.L.L.#.K [ ! ! ` ~ ! w 8 R F.L.L.L.L.L.L.L.L.L.L.L.",
"L.L.L.L.L.L.L.K.;.T L ! ^ L ^ ~ r 6 8 x.L.L.L.L.L.L.L.L.L.L.L.L.",
"L.L.L.L.L.L.H.<.' / E E ~ ~ e r 0 R x.L.L.L.L.L.L.L.L.L.L.L.L.L.",
"L.L.L.L.L.K.-.$./ / ~ ~ ~ W w 3 ) V.L.L.L.L.L.L.L.L.L.L.L.L.L.L.",
"L.L.L.L.L.+.I _ I ^ ~ Q r 6 5 >.K.L.L.L.L.L.L.L.L.L.L.L.L.L.L.L.",
"L.L.L.L.=.Y E ! ^ e r 5 q @.h.L.L.L.L.L.L.L.L.L.L.L.L.L.L.L.L.L.",
"L.L.L.,.7 R q 5 4 1 8 &.g.L.L.L.L.L.L.L.L.L.L.L.L.L.L.L.L.L.L.L.",
"L.L.L.O.q r R ( *.p.V.L.L.L.L.L.L.L.L.L.L.L.L.L.L.L.L.L.L.L.L.L.",
"L.L.L.K.M.V.F.L.L.L.L.L.L.L.L.L.L.L.L.L.L.L.L.L.L.L.L.L.L.L.L.L.",
"L.L.L.L.L.L.L.L.L.L.L.L.L.L.L.L.L.L.L.L.L.L.L.L.L.L.L.L.L.L.L.L.",
"L.L.L.L.L.L.L.L.L.L.L.L.L.L.L.L.L.L.L.L.L.L.L.L.L.L.L.L.L.L.L.L."
};
