/* XPM */
static const char *ZXhpdA__[] = {
/* columns rows colors chars-per-pixel */
"32 32 198 2 ",
"   c #24170A",
".  c #27180D",
"X  c #2B1B0C",
"o  c #301F0E",
"O  c #32210F",
"+  c #362310",
"@  c #3A2613",
"#  c #3E2911",
"$  c #42230E",
"%  c #432C15",
"&  c #402711",
"*  c #512F14",
"=  c #4C3116",
"-  c #4D3419",
";  c #473119",
":  c #52361A",
">  c #5C3718",
",  c #543A1C",
"<  c #5B3D1E",
"1  c #633F1D",
"2  c #5B3F20",
"3  c #6A441E",
"4  c #71471F",
"5  c #5D4122",
"6  c #634423",
"7  c #6B4420",
"8  c #664824",
"9  c #774B23",
"0  c #884C1C",
"q  c #8E5118",
"w  c #95581F",
"e  c #894F21",
"r  c #8A5324",
"t  c #8F5728",
"y  c #8E5829",
"u  c #935B25",
"i  c #945B2A",
"p  c #995D2C",
"a  c #955A22",
"s  c #9C632D",
"d  c #9F6325",
"f  c #9C6332",
"g  c #9A6635",
"h  c #A3652C",
"j  c #A9672D",
"k  c #A46A2E",
"l  c #AC6B2E",
"z  c #A66627",
"x  c #AE7C2D",
"c  c #B9702B",
"v  c #A46C33",
"b  c #AD6C31",
"n  c #AB6C3C",
"m  c #AA6836",
"M  c #B36E32",
"N  c #B56D3D",
"B  c #A57137",
"V  c #A87136",
"C  c #A67239",
"Z  c #AC743C",
"A  c #AE783E",
"S  c #B57134",
"D  c #BA7536",
"F  c #B4753D",
"G  c #BB7639",
"H  c #BC7A39",
"J  c #B36C2A",
"K  c #C27D3D",
"L  c #AD6E40",
"P  c #B36B43",
"I  c #AE7941",
"U  c #A67445",
"Y  c #B47542",
"T  c #B77945",
"R  c #BC7B45",
"E  c #BB7249",
"W  c #BB7B48",
"Q  c #C07F49",
"!  c #968B1D",
"~  c #8A9616",
"^  c #899D16",
"/  c #919A1D",
"(  c #80A307",
")  c #83A513",
"_  c #84A914",
"`  c #8DAC1D",
"'  c #89A419",
"]  c #8CB11B",
"[  c #90B01F",
"{  c #9C8D24",
"}  c #9D9224",
"|  c #909322",
" . c #A38227",
".. c #A18D27",
"X. c #AA842D",
"o. c #A7882B",
"O. c #B0802E",
"+. c #B88637",
"@. c #8AA527",
"#. c #9CA628",
"$. c #94B524",
"%. c #95B825",
"&. c #9BB92B",
"*. c #A6A638",
"=. c #C4823E",
"-. c #CB853D",
";. c #C2893C",
":. c #D1893D",
">. c #A5C233",
",. c #ACC43B",
"<. c #B5CC3D",
"1. c #B2D03E",
"2. c #BF834C",
"3. c #B3814E",
"4. c #B48558",
"5. c #B09E56",
"6. c #8FAC50",
"7. c #90AD5D",
"8. c #91B55E",
"9. c #B98D60",
"0. c #A1B965",
"q. c #C68340",
"w. c #CA8542",
"e. c #CD8A45",
"r. c #C5844C",
"t. c #C8844C",
"y. c #CD8A4C",
"u. c #C68A41",
"i. c #D08D47",
"p. c #D38D49",
"a. c #D5884A",
"s. c #D3924B",
"d. c #D79547",
"f. c #D49750",
"g. c #D99B53",
"h. c #C98852",
"j. c #DCA057",
"k. c #C0996E",
"l. c #C19D77",
"z. c #D1A47B",
"x. c #E6AE63",
"c. c #AFC941",
"v. c #B6CC45",
"b. c #B9CE49",
"n. c #BCD14B",
"m. c #BACE51",
"M. c #BDD154",
"N. c #BBCE65",
"B. c #C2D74E",
"V. c #C0D35D",
"C. c #CBDC5A",
"Z. c #C6D955",
"A. c #C6D763",
"S. c #CBDB79",
"D. c #C8A889",
"F. c #D3AF8F",
"G. c #DBB085",
"H. c #CDAF93",
"J. c #CDB294",
"K. c #D1B295",
"L. c #D2B69B",
"P. c #D4BB9C",
"I. c #DAB696",
"U. c #D3BAA1",
"Y. c #C9D895",
"T. c #D7E398",
"R. c #DCE886",
"E. c #D7C1AC",
"W. c #DDC9B0",
"Q. c #CCD8B2",
"!. c #E6C7A8",
"~. c #DEE9A5",
"^. c #E9F2AA",
"/. c #E3ECB7",
"(. c #E3ECA9",
"). c #E4D4C5",
"_. c #E7D8CB",
"`. c #ECDDD3",
"'. c #DEE7D2",
"]. c #E6EEC4",
"[. c #EEE4DA",
"{. c #F1E7DC",
"}. c #EFF4D4",
"|. c #F8FBD0",
" X c #F0F5C6",
".X c #F5EDE4",
"XX c #F5EFE9",
"oX c #EAF0E6",
"OX c #F3F7E0",
"+X c #F5F8E6",
"@X c #F3F3E9",
"#X c #FAFCED",
"$X c #F8F1E9",
"%X c #FAF6F3",
"&X c #F3F9F1",
"*X c #FCFCF3",
"=X c #FFFFFF",
"-X c #FEFEFE",
/* pixels */
"=X=X=X=X=X=X=X=X=X=X=X=X#X X^.^.].+X=X=X=X=X=X=X=X=X=X=X=X=X=X=X",
"=X=X=X=X=X=X=X=X=X=X*X^.A.n.v.<.v.n.S.].=X=X=X=X=X=X=X=X=X=X=X=X",
"=X=X=X=X=X=X}.OX=X|.C.<.v.b.b.b.b.v.<.<.S.#X=X=X=X=X=X=X=X=X=X=X",
"=X=X=X=X-X=X/.V.R.B.v.b.n.b.b.b.v.v.,.n.<.M.OX=X=X=X=X=X=X=X=X=X",
"=X=X=X=X=X~.V.C.B.v.b.b.b.v.b.n.` &.[ %.b.,.m.#X=X=X=X=X=X=X=X=X",
"=X=X=X=X=XT.n.C.v.b.b.b.n.b.n.%._ _ _ ~ $.c.%.N.=X=X=X=X=X=X=X=X",
"=X=X=X=X=XT.C.v.v.v.v.b.,.>.$.~ ^ ..o.G o.&.$.( Y.=X%X-X=X=X=X=X",
"=X=X=X=X=X~.n.b.,.,.>.v._ / x K K K a.e.a.+.' _ ` ].T.+X*X=X=X=X",
"=X=X=X-X=X(.<.,.` ] ,.] ! K p.p.p.i.i.i.e.a.X._ ) &.V.S./.=X=X=X",
"=X=X=X=XQ.A.>.` ~ #.&.! p.j.p.p.p.p.i.i.i.e.a.} ' _ ,.v.~.=X=X=X",
"=X=X&X'.0.] ` X.H #./ K g.s.G S G -.i.i.i.i.p.;.{  .@.1.A.=X=X=X",
"=X=X@X7.@.^ ..a.+.) +.s.H r 3 6 7 i G e.p.e.i.a.o.x l *.~.-X=X=X",
"=X=X@X8.|  .u.a.} } a.l 3 2 5 6 8 8 9 j e.p.i.p.;.{ w.M `.=X-X=X",
"=X=XoX6.O.=.w.w.X.;.b 3 5 5 , - - 6 6 1 j i.e.s.p.X.e.-.2.-X=X=X",
"=X=X&X5.w.e.q.e.K D 4 6 < % & % % % 2 5 3 D i.f.g.K =.s.c F.=X-X",
"=X=X.Xy.s.K e.p.=.t 6 2 % % # + @ # % 6 2 r -.e.s.e.q.s.w.S XX=X",
"-X=X!.d.f.K s.s.M 9 2 = # o X X X X # , 8 6 M q.w.e.e.p.e.D .X=X",
"-X=XG.:.w.=.s.e.j 8 < # X X X X X X o % 8 5 i H =.=.e.s.-.z.=X=X",
"-X=XI.-.q.=.e.q.i 6 , + X X X X X X X @ 2 5 9 M G K H x.s.T %X=X",
"-X=X_.l S K q.K y 6 ; X X X X X X X X O , 6 7 l b H S g.e.j {.=X",
"=XXX3.s v S H H y 5 % X X X X X X X X X - 5 7 b b M M K M W %X=X",
"=Xk.l v b M b S i < % X X X X X X X X o : 6 9 M b M S G J 4.=X=X",
").V v f N b b M s 2 % X X X X X X X X O 2 5 9 M M S M j p q l.=X",
"K.m Y R E 2.R S j < : O X X X X X X X # < < h b h m P f g v v `.",
"K.m h.r.T r.t.Y M 3 ; @ . X .       X & : T t.P L r.E r.r.I v P.",
"W.v T r.Y L F L p 0 > > * $ & % = > g n g R Y n r.r.Y R t.E m P.",
"$XI Z Q F C C Z C s s Z V p r i s v T Y C C C v Y y.T n Z Z Z [.",
"=XL.z Z Z A A A A A v v A A C s g A C Z A A A A A Z Z Z I z K.=X",
"=X=X9.w i i s C A C A C C A Z A C C A A A Z Z C i i A A d l.=X=X",
"-X=X%X4.q u u r e a s B A A A V h U k C I B f t r s a s H.=X=X=X",
"=X=X=X=XU.U s s g U f v k k v U J.*XL.B k v k k u U D.{.=X=X=X=X",
"=X=X=X=X=X-X`._.$X*X_.U.J.U.).%X=X=X=X.XE.H.D.P.).%X=X=X=X=X=X=X"
};
