/* XPM */
static char *d3d554a33a6143a2eee2e2a1ee80cba8Qp0LUwSrLMDDHm2u[] = {
/* columns rows colors chars-per-pixel */
"32 32 213 2 ",
"   c #4B220E",
".  c #4C230F",
"X  c #52220E",
"o  c #53230F",
"O  c #4D2410",
"+  c #4E2511",
"@  c #4F2612",
"#  c #532211",
"$  c #542312",
"%  c #532410",
"&  c #512711",
"*  c #502713",
"=  c #542511",
"-  c #552511",
";  c #542710",
":  c #552413",
">  c #562612",
",  c #572713",
"<  c #522714",
"1  c #562514",
"2  c #572615",
"3  c #562715",
"4  c #582716",
"5  c #522812",
"6  c #532913",
"7  c #552811",
"8  c #562912",
"9  c #572A13",
"0  c #512814",
"q  c #532815",
"w  c #522915",
"e  c #532A16",
"r  c #542A14",
"t  c #552B15",
"y  c #542B17",
"u  c #562C16",
"i  c #572D17",
"p  c #582814",
"a  c #592915",
"s  c #582B14",
"d  c #592817",
"f  c #582917",
"g  c #582B16",
"h  c #5A2A16",
"j  c #5B2B17",
"k  c #592C15",
"l  c #5A2C15",
"z  c #5A2D16",
"x  c #5B2D16",
"c  c #5B2E17",
"v  c #552C18",
"b  c #562D19",
"n  c #572E1A",
"m  c #5A2918",
"M  c #592A18",
"N  c #5B2A19",
"B  c #5C2B1A",
"V  c #5A2D18",
"C  c #582E18",
"Z  c #592F19",
"A  c #582F1B",
"S  c #5D2D19",
"D  c #5C2F18",
"F  c #5E2E18",
"G  c #5F2F19",
"H  c #5E2E1A",
"J  c #5F2F1B",
"K  c #5A301A",
"L  c #5B311B",
"P  c #5D3019",
"I  c #5E311A",
"U  c #5F321B",
"Y  c #59301C",
"T  c #5E341E",
"R  c #633015",
"E  c #653217",
"W  c #60301A",
"Q  c #61311B",
"!  c #663318",
"~  c #643519",
"^  c #663419",
"/  c #673419",
"(  c #64351B",
")  c #67351A",
"_  c #60301C",
"`  c #61311D",
"'  c #60331C",
"]  c #62321C",
"[  c #63331D",
"{  c #62321E",
"}  c #63331F",
"|  c #63351D",
" . c #63361F",
".. c #64341D",
"X. c #64341E",
"o. c #65351F",
"O. c #68351A",
"+. c #68361B",
"@. c #69361B",
"#. c #69371C",
"$. c #6A371C",
"%. c #6D3B1A",
"&. c #6F3D1A",
"*. c #6A381D",
"=. c #6B381D",
"-. c #6C391E",
";. c #6D3A1F",
":. c #713F1A",
">. c #703E1B",
",. c #713F1C",
"<. c #703E1D",
"1. c #613721",
"2. c #643420",
"3. c #653521",
"4. c #663620",
"5. c #673721",
"6. c #663922",
"7. c #6E3B20",
"8. c #6F3C21",
"9. c #683B24",
"0. c #703D22",
"q. c #713E23",
"w. c #723F22",
"e. c #723F24",
"r. c #73411C",
"t. c #72401D",
"y. c #73411E",
"u. c #74421D",
"i. c #75431E",
"p. c #74421F",
"a. c #76441F",
"s. c #734120",
"d. c #734021",
"f. c #734023",
"g. c #754320",
"h. c #744221",
"j. c #744122",
"k. c #754322",
"l. c #754223",
"z. c #764421",
"x. c #774522",
"c. c #764423",
"v. c #734025",
"b. c #744124",
"n. c #754225",
"m. c #764324",
"M. c #744126",
"N. c #754227",
"B. c #764326",
"V. c #774524",
"C. c #774425",
"Z. c #774427",
"A. c #784621",
"S. c #794722",
"D. c #784623",
"F. c #794724",
"G. c #784625",
"H. c #784526",
"J. c #794726",
"K. c #794627",
"L. c #7A4823",
"P. c #7B4924",
"I. c #7A4825",
"U. c #7B4926",
"Y. c #7A4827",
"T. c #7C4A25",
"R. c #7D4B26",
"E. c #7C4A27",
"W. c #7E4C27",
"Q. c #764328",
"!. c #774429",
"~. c #784528",
"^. c #794629",
"/. c #7A4728",
"(. c #78452A",
"). c #79462B",
"_. c #7A472A",
"`. c #7A472C",
"'. c #7B4928",
"]. c #7D4B28",
"[. c #7C4A29",
"{. c #7F4D28",
"}. c #7E4C29",
"|. c #7F4D2A",
" X c #7E4C2B",
".X c #7B482D",
"XX c #7F4D2C",
"oX c #804E29",
"OX c #814F2A",
"+X c #804E2B",
"@X c #814F2C",
"#X c #82502B",
"$X c #83512C",
"%X c #82502D",
"&X c #83512E",
"*X c #84522D",
"=X c #86542F",
"-X c #845231",
";X c #855332",
":X c #875530",
">X c #865431",
",X c #875532",
"<X c #865433",
"1X c #875534",
"2X c #895734",
"3X c #8B5934",
"4X c #8A5835",
"5X c #8A5837",
"6X c #8C5A35",
"7X c #8C5A37",
"8X c #8E5C37",
"9X c #8D5B3A",
"0X c #8E5C39",
/* pixels */
":X3X8X6X=XoXW.W.y.p.S.P.P.S.p.y.T.a.>.p.T.oXoXT. XP.P.oXoXS.a.S.",
"T.T.P.S.S.S.P.T.S.L.T. X XT.L.S.S.p.p.P.#X*X XS.%XS.>.p.S.L.T.oX",
"@XT.z.y.g.P. X@XP.P. X X X XP.P.p.g.J.@X:X:X].g.%XS.y.z.P.P.P.].",
"2X%XP.z.S.P.T.P.g.z.S.J.J.S.z.g.y.p.S. X%X@XP.g.P.P.@X:X%Xz.,.y.",
"].P.S.z.z.g.y.>.y.y.p.p.p.p.y.y.g.p.g.z.J.P.J.z.p.].3X6X X,.,.P.",
",.z.P.T.S.p.y.y.g.g.g.g.g.g.g.g.z.g.y.y.y.g.z.J.g.P.@XoXg.&.T.0X",
"z.XX:X;X'.g.g.J.V.z.g.g.g.g.z.V.z.z.g.s.s.g.V.P.V.g.g.z.g.s.].3X",
" X1X9X;Xz.%.,.V.g.g.s.s.s.s.g.g.z.V.J.V.z.z.V.J.z.,.,.V.'.J.g.g.",
"~.~.J.J.V.J.J.~.s.g.m.m.m.m.m.g.J.J.V.V.V.m.m.m.J.J.J.J.J.J.J.J.",
"J.V.m.g.s.s.g.g.m.V.J.~.~.J.J.V.g.g.g.m.m.V.J.J.m.m.m.m.m.m.m.m.",
"~.!.m.m.s.s.s.m.V.~.~.~.~.~.V.m.m.m.m.m.m.m.m.m.m.m.m.m.m.v.m.m.",
"m.m.m.m.m.m.~.~.m.m.V.V.V.m.m.s.~.~.~.V.m.m.v.q.m.m.m.m.m.m.m.m.",
"7.7.8.q.v.Q.~.`.!.!.~.~.!.Q.m.v.m.m.Q.Q.Q.Q.Q.!.Q.Q.!.Q.!.!.!.!.",
"! ! ^ @.-.8.e.m.~.~.~.~.!.Q.m.v.#.=.-.q.m.!.`..Xv.v.m.m.m.m.m.m.",
"! ! ! ! ^ @.=.-.v.v.v.v.q.8.7.-.E ! @.=.-.q.e.v.-.-.-.-.=.=.=.-.",
"-.=.@.^ @.^ #.@.=.=.=.#.@.^ E R @.@.@.^ ^ ! E E E E E E E E E E ",
"^ ^ ^ ^ ^ ~ ^ ~ ^ ~ ^ ~ ^ ~ ^ ^ ^ ^ ^ ^ ^ ^ ^ ^ ^ ^ ^ ^ ^ ^ ^ ^ ",
"^ ^ ^ ^ ~ ~ ~ ~ ~ ~ ~ ~ ~ ~ ^ ^ ^ ^ ^ ^ ^ ^ ^ ^ ^ ^ ^ ^ ^ ^ ^ ^ ",
"^ ^ ^ ^ ^ ^ ~ ~ ~ ~ ^ ^ ^ ^ ^ ^ ~ ~ ~ ^ ^ ^ ^ ^ ~ ~ ^ ^ ^ ^ ^ ^ ",
"^ ^ ^ ^ ^ ^ ~ ~ ^ ^ ^ ^ ^ ^ ^ ^ ~ ~ ~ ~ ^ ^ ^ ^ ~ ^ ^ ^ ^ ^ ^ ^ ",
"^ ^ ^ ^ ^ ^ ^ ^ ^ ^ ^ ^ ^ ^ ..^ ^ ^ ^ ^ ^ ^ ^ ^ ^ ^ ^ ^ ^ ^ ^ ^ ",
"^ ^ ^ ^ ^ ^ ^ ^ ^ ^ ^ ^ ^ ^ ^ ^ ^ ^ ^ ^ ^ ^ ~ ~ ^ ^ ^ ^ ^ ^ ^ ^ ",
"....| | | | ..| ................| | | | | | | | | | | | | | | | ",
"....| | | | | | ................| | | | | | | | | | | | | | | | ",
"4.4.4.4....._ _ _ _ ..4.4..._ W x 9 9 9 x I 1.6.I x a V | 9.9.6.",
"F F W _ _ _ ............_ W F x x x 9 9 9 x F I 8 8 , 8 x I _ _ ",
", , a a F _ _ _ 4.4.4._ F a , , V u u 9 9 5 5 5 9 9 u V V K T 1.",
"o o , , a a F F _ _ _ F a 4 , % a u u u 9 q 5 % 5 u K V 9 u K 1.",
"$ $ , , 2 2 2 2 B B m a 4 2 2 2 q q 9 b b b b 9 . % q q @ @ q b ",
"4 2 2 2 , $ $ # 4 4 2 2 2 2 a m < q q q b b b V q q q q @ @ q b ",
"a 4 4 2 2 2 , , m 4 2 , , 2 a m < % @ @ % q b b Y b 9 q b b b q ",
"4 4 4 4 4 4 4 2 m m 2 , , 2 4 a q % @   . @ q 9 b q @ @ q q q @ "
};
