/* XPM */
static const char *cGxheWVy[] = {
/* columns rows colors chars-per-pixel */
"32 32 215 2 ",
"   c #040405",
".  c #07070A",
"X  c #0B0A0B",
"o  c #170D0D",
"O  c #150F11",
"+  c #161618",
"@  c #171719",
"#  c #261412",
"$  c #281916",
"%  c #341B17",
"&  c #3A1C17",
"*  c #3B1E18",
"=  c #37221C",
"-  c #3C221D",
";  c #2C292A",
":  c #392B27",
">  c #431F19",
",  c #43241C",
"<  c #49271E",
"1  c #4D291E",
"2  c #50271E",
"3  c #4B2C23",
"4  c #542C23",
"5  c #5A2E22",
"6  c #533225",
"7  c #5C3226",
"8  c #553328",
"9  c #5A3529",
"0  c #5C392D",
"q  c #563D34",
"w  c #602F24",
"e  c #623425",
"r  c #643528",
"t  c #643B2C",
"y  c #6B3C2C",
"u  c #723D2C",
"i  c #783D2C",
"p  c #5F443A",
"a  c #73412E",
"s  c #7D442F",
"d  c #654536",
"f  c #6D4433",
"g  c #754532",
"h  c #7A4633",
"j  c #724935",
"k  c #7C4A35",
"l  c #764D3A",
"z  c #7D503C",
"x  c #3E3F40",
"c  c #48494A",
"v  c #5A544D",
"b  c #4A5157",
"n  c #565A5A",
"m  c #695247",
"M  c #775645",
"N  c #5F605C",
"B  c #67655D",
"V  c #7A6457",
"C  c #505E64",
"Z  c #5C6567",
"A  c #53646C",
"S  c #596568",
"D  c #5A6C73",
"F  c #5E7077",
"G  c #676862",
"H  c #6C6B66",
"J  c #636C6D",
"K  c #706D68",
"L  c #687475",
"P  c #64767A",
"I  c #657A7D",
"U  c #6A7C7E",
"Y  c #7A7A72",
"T  c #747D7C",
"R  c #834B34",
"E  c #8A4F37",
"W  c #844F38",
"Q  c #84523B",
"!  c #8B553C",
"~  c #8E593F",
"^  c #91563B",
"/  c #935A3F",
"(  c #8A5640",
")  c #865942",
"_  c #8C5C43",
"`  c #925D41",
"'  c #9A5F42",
"]  c #956146",
"[  c #9B6446",
"{  c #94654A",
"}  c #9D6649",
"|  c #956B4F",
" . c #9D6A4B",
".. c #866552",
"X. c #966C52",
"o. c #97725A",
"O. c #A26646",
"+. c #A46B4B",
"@. c #A86E4C",
"#. c #AA714D",
"$. c #A47454",
"%. c #AB7553",
"&. c #A57A5B",
"*. c #AA7A58",
"=. c #B67D55",
"-. c #B37E59",
";. c #82796B",
":. c #987B64",
">. c #817E74",
",. c #78807C",
"<. c #AC815E",
"1. c #B4835D",
"2. c #BA845D",
"3. c #9A826B",
"4. c #898379",
"5. c #928373",
"6. c #958878",
"7. c #AB8665",
"8. c #A3856B",
"9. c #B48360",
"0. c #BD8B62",
"q. c #BB8F6A",
"w. c #BD946E",
"e. c #AB9378",
"r. c #BE9C79",
"t. c #C08A5E",
"y. c #C18C63",
"u. c #C69368",
"i. c #C89569",
"p. c #CC9A6E",
"a. c #D19C6B",
"s. c #C99C72",
"d. c #CAA277",
"f. c #D1A477",
"g. c #D7AB7C",
"h. c #DAAE7D",
"j. c #6A7C81",
"k. c #6D8384",
"l. c #758789",
"z. c #748A8C",
"x. c #78918F",
"c. c #7A8E91",
"v. c #7D9294",
"b. c #888B86",
"n. c #838D8B",
"m. c #978E84",
"M. c #82908F",
"N. c #8B918C",
"B. c #9A9487",
"V. c #94958C",
"C. c #829495",
"Z. c #8D9895",
"A. c #829799",
"S. c #869A9B",
"D. c #8B9D9C",
"F. c #949A95",
"G. c #A99C8A",
"H. c #A19E92",
"J. c #96A29D",
"K. c #9AA19C",
"L. c #BAA78B",
"P. c #ABA494",
"I. c #A5A69B",
"U. c #ABA99C",
"Y. c #B4A997",
"T. c #BEB29C",
"R. c #879EA0",
"E. c #8DA2A2",
"W. c #8FA8AA",
"Q. c #94A5A3",
"!. c #9AA6A3",
"~. c #97A8A7",
"^. c #95AAAA",
"/. c #9BADAB",
"(. c #9DB1AE",
"). c #9DB2B1",
"_. c #A4ABA5",
"`. c #A9ACA3",
"'. c #A2AEAA",
"]. c #A3B2AE",
"[. c #ADB4AC",
"{. c #B3B5AC",
"}. c #BBB8A9",
"|. c #A3B4B2",
" X c #AAB6B1",
".X c #A6B9B5",
"XX c #B3BBB3",
"oX c #BCBFB4",
"OX c #CBAA85",
"+X c #D9AE82",
"@X c #CEB28E",
"#X c #DBB282",
"$X c #D7B38B",
"%X c #C2AE90",
"&X c #C5B79D",
"*X c #E1B888",
"=X c #C2B8A3",
"-X c #C4BEAC",
";X c #C0BFB2",
":X c #BAC3B9",
">X c #D9C7AB",
",X c #C3C2B5",
"<X c #C4C6BB",
"1X c #C2C8BE",
"2X c #CCCBBC",
"3X c #D1CBB7",
"4X c #D7CBB4",
"5X c #D3CDBC",
"6X c #C6CBC0",
"7X c #CBCDC1",
"8X c #D2CFC1",
"9X c #D4D1C2",
"0X c #DBD3C2",
"qX c #DFD8C4",
"wX c #E5DBC6",
/* pixels */
"E.|.].J.K.J.n.l.z.D.Q.<X~.c.v.E./.(.|./.E.^.XXXX.X7X7X7X[./.^.^.",
"D.|.Q.D.D.!.{.'.Q.|.'.oX/.v.z.c.S.)..X(.W.^.|.^.(.6X6X1XK.^./.'.",
"E.|./.!._.2X8X:X X].'.}.U.C.c.v.C.^..X).^.^./.W./.1X1X:X`._.N.J ",
"E.).~.Q.,X2X,XXX[.'.'.=X%XF.v.v.C.Q.(.Q.R.E.^.^.(.:XXX`.b.J C A ",
"C.~.Q.Q._.,X2X{.F.'. XT.+Xe.C.C.v.C.S.Q.D.A.E.S.Q.Z.l.J D P U M.",
"E.).W.E. X8X5X'.C.'. XU.f.$.6.C.v.S.Q./.^.E.Q.Q.Q.U l.L n.F.[.oX",
"Q.|.~.^.1X9X5X5X_.!. X`.OX} o.D.E./.|.(./.D.Q.[.[.Z.J.[.<X7X2X,X",
"~.].K.{.9X9X0X5XK.N.G.P.d./ ) N.E./. X].`.'.'.{.;XoX2X9X9X5X0X5X",
"'.XXI.,X5X5X0X3XZ.B.e.d.-.y a 3.I.'. X{.&X=X}.2X2X7X9X0XwXwXwX3X",
"{.U.{.5X9X0X0X{.N.G.d.d.! 5 y $.%X&X,XL.&.{ q.&X2X9X0XqX5X`.b.J ",
"V.V.}.>X>X4X4XY.P.%X#Xu.} Q %.=.p.f.r.j , * j r.5X,XU.b.L A A A ",
"N.K.T.OX9.$.o.8.OXh.u.y.s.+X*Xh.f.t.~ y 7 % % d P.T D D D D D A ",
"N.K.%Xh.] 5 > < ` =.=.h.i.y.p.i.1.2.%.e 5 $ * % m T k.j.P F D D ",
"n.I.$X9.7 > * 5 E ' 0.u.! R O.j % 3 ! Q 4 - * > 4 Y z.l.j.I P I ",
"n.P.<.< # # < g y - 6 R s R R * X @ , R k 4 , # , ..C.z.l.k.I I ",
"b.G.d & o % 7 a * @ O 5 / ' ! r # $ w u ~ t < o & Q V.C.c.z.l.z.",
";.7.- % X 3 k i r % $ a O.2.2.%.h h ! R R ! t , * e 5.D.C.v.v.x.",
":.&.1 f d 7. .s i y ! #.i.i.a.i.-.` ' } R W ! f , 5 o.Z.C.z.k.k.",
"8. .h { 7.g.2.[ W 9.u.-.s.X.Q O.u.y.2.[ [ h u ! l 4 M Z.A.z.U k.",
"5. .r m OX#X$.( *.+X%.:.v ; ; t [ ^ +.] Q h e { e.0 B D.A.z.U U ",
"m.) 4 V @X0.k t &.y.1.B @   . = } +.~ z a y 5 ..L.p b.D.A.c.k.l.",
"Y...2 M e.*.f $.] 0.h.M X   X 8 z Q Q k ! } k X.5.K D.S.C.v.c.z.",
"L.e.y j 5.w.&.<.{ #Xp._ = o $ 0 8 8 g 7 t [ / { 6.4.T l.l.j.I P ",
"L.T.d y V e.s.*.-.f.1.j 0 : 3 0 9 0 9 & 1 Q ! ! o.B n S S S S L ",
"V.N.: 6 f 8.&.q.X._ t l { Q z ( Q ! Q < e R Q ! ..Y T ,.T T T N.",
"J L n c q 3.| 9.) t t ) ] ` t y t h ! g y R ^ / :.P.I.b.N.V.F.F.",
"b n Z Z H m.&.0.1.l 0 M ) g t 3 7 e ! Q R R / [ X.B.I.H.U.}.-X=X",
"N G B G H 6.u.s.f.1.l { 8 4 , 3 3 7 g t k h ! ` | 3.B.V.V.b.>.H.",
"B Y >.H ;.r.f.g.h.g.[ _ 9 - # 3 r u h e u R / ' o.6.v c G G c T ",
"B.}.-XY.r.p.#Xf.u.y.+.W h 4 - 8 k E } Q k ! [ O.} m $ X O @ ; b ",
"P.3X3X@Xi.p.#Xg.@./ 2.` u 4 - f ! ! %.] ! [ @.+.~ M ; @ . . X @ ",
"3.4X>X$X9.1.<.#X9.#.2.! h 4 $ j ! ! %. .` +.@.@.[ M c x @ ; c c "
};
