/* XPM */
static const char *d2FsbA__[] = {
/* columns rows colors chars-per-pixel */
"32 32 184 2 ",
"   c #3E553A",
".  c #3F5B35",
"X  c #425D3C",
"o  c #46613E",
"O  c #45683E",
"+  c #486E3F",
"@  c #46723E",
"#  c #465D44",
"$  c #4B5F46",
"%  c #4A6144",
"&  c #4A6D43",
"*  c #4B634B",
"=  c #4D6A4A",
"-  c #456243",
";  c #50614E",
":  c #526C4C",
">  c #477141",
",  c #4C7344",
"<  c #4F7348",
"1  c #4E7944",
"2  c #507447",
"3  c #507C47",
"4  c #53734B",
"5  c #547B4D",
"6  c #587E4F",
"7  c #546C52",
"8  c #567352",
"9  c #5A7456",
"0  c #557850",
"q  c #5B7A55",
"w  c #577158",
"e  c #5B7559",
"r  c #5D7A5A",
"t  c #61705D",
"y  c #627B5D",
"u  c #5F7461",
"i  c #627863",
"p  c #56834E",
"a  c #59864F",
"s  c #5B8352",
"d  c #5C8953",
"f  c #648057",
"g  c #628A56",
"h  c #64845C",
"j  c #668C5C",
"k  c #6E8E5D",
"l  c #629E56",
"z  c #69935E",
"x  c #6C9C5D",
"c  c #66965C",
"v  c #6BA35D",
"b  c #6BA95E",
"n  c #668162",
"m  c #6D8466",
"M  c #6C8B63",
"N  c #6D836C",
"B  c #6F8D69",
"V  c #71886B",
"C  c #6C9463",
"Z  c #6C9C63",
"A  c #729364",
"S  c #729C65",
"D  c #799C66",
"F  c #709369",
"G  c #769C6B",
"H  c #7B9C6D",
"J  c #768A71",
"K  c #7E9777",
"L  c #7D9B72",
"P  c #7E9078",
"I  c #6DA262",
"U  c #73A463",
"Y  c #78A167",
"T  c #74A965",
"R  c #79AA67",
"E  c #75A36A",
"W  c #7AA46B",
"Q  c #75A86D",
"!  c #7BAB6C",
"~  c #76B268",
"^  c #7CB16D",
"/  c #7EAB74",
"(  c #7EB073",
")  c #809B78",
"_  c #80AB6E",
"`  c #81A474",
"'  c #82AC73",
"]  c #87A37D",
"[  c #85AD79",
"{  c #8AAA7E",
"}  c #85B379",
"|  c #85B379",
" . c #7F9483",
".. c #819280",
"X. c #889F85",
"o. c #88A184",
"O. c #8AAC83",
"+. c #90A886",
"@. c #93AC8A",
"#. c #91BC87",
"$. c #95B88E",
"%. c #97A596",
"&. c #9CAF9C",
"*. c #92AA94",
"=. c #9FBF90",
"-. c #9EB29C",
";. c #A3B79C",
":. c #A4B89F",
">. c #A2BE95",
",. c #9BB0A1",
"<. c #A6BBA4",
"1. c #A9BDA1",
"2. c #8EC081",
"3. c #AAC2A3",
"4. c #AFC3A8",
"5. c #B3C8A7",
"6. c #B2C1AE",
"7. c #B7D4AD",
"8. c #BBD4AD",
"9. c #B9D8AF",
"0. c #B6C4B4",
"q. c #B6C8B2",
"w. c #B9CDB7",
"e. c #BECCBD",
"r. c #BBD5B3",
"t. c #BFD8B1",
"y. c #C7E1BC",
"u. c #C1E1B2",
"i. c #C3D6C3",
"p. c #C6DAC2",
"a. c #CBDAC7",
"s. c #C8DCCB",
"d. c #CCE3C6",
"f. c #D2E5CC",
"g. c #D1E4D0",
"h. c #DBEDD7",
"j. c #DEF0D6",
"k. c #DFF2DC",
"l. c #E0EADF",
"z. c #E6FCDF",
"x. c #EBFFDD",
"c. c #E2F7D9",
"v. c #DAECE0",
"b. c #E0EEE1",
"n. c #EAEFE9",
"m. c #E2F2E3",
"M. c #ECFEE5",
"N. c #E7F5E8",
"B. c #EDF6EE",
"V. c #EEFBEB",
"C. c #F1FFE5",
"Z. c #F3FFEC",
"A. c #EEFBF2",
"S. c #F3F3F3",
"D. c #FAF6F7",
"F. c #F5FEF4",
"G. c #FAFFF5",
"H. c #F6F7F9",
"J. c #FDF5FD",
"K. c #F6FDF9",
"L. c #FBFFFB",
"P. c #F9FFF9",
"I. c #FCFFFB",
"U. c #FCFFFA",
"Y. c #FEFFFA",
"T. c #FCFFF8",
"R. c #F9F9FD",
"E. c #FFFBFF",
"W. c #FFFAFF",
"Q. c #FEF9FE",
"!. c #FBFFFD",
"~. c #FAFEFD",
"^. c #FBFFFF",
"/. c #FAFEFD",
"(. c #FCFFFD",
"). c #FFFFFD",
"_. c #FFFCFF",
"`. c #FFFDFF",
"'. c #FCFFFF",
"]. c #FFFEFF",
"[. c #FEFFFF",
"{. c white",
"}. c #FEFDFE",
"|. c #FEFDFD",
/* pixels */
"^.^.'.'.'.'.'.'.R.R.'.'.'.F.F.^.E.E.E.'.'.'.I.I.I.G.K.^.'.'.E.E.",
"'.'.'.'.'.'.'.'.'.'.H.^.'.^.F.S.E.E.'.'.|.G.K.G.I.I.'.'.'.'.E.E.",
"'.'.'.'.'.'.'.'.'.'.K.H.^.^.L.L.E.'.'.'.'.I.I.L.G.L.'.'.'.E.E.'.",
"'.'.'.'.'.'.'.'.H.'.'.L.K.^.L.'.'.'.'.'.I.I.G.F.F.L.L.L.'.'.'.E.",
"'.'.'.'.'.'.'.'.^.'.'.^.K.K.L.K.'.I.G.G.G.F.F.B.G.L.L.K.'.'.'.R.",
"'.'.'.'.'.'.'.'.'.L.K.L.L.L.L.L.G.I.I.G.G.F.G.F.F.G.L.L.^.'.'.H.",
"E.E.'.'.'.'.I.I.L.F.F.F.B.l.B.G.Z.G.G.V.a.q.w.p.k.F.L.L.L.'.'.R.",
"E.E.'.'.'.I.L.G.F.F.F.Z.e.%.0.F.V.G.F.p.P % # 7 w.k.F.L.K.^.'.'.",
"E.'.E.'.n.L.F.F.f.<.X.:.N ; t 6.c.M.d.m X y y : 8 <.F.F.L.F.'.H.",
"J.D.'.'.L.F.Z.d.8 = : n =   $ J e m K y 4 h 4 = 8 o.g.m.L.A.^.^.",
"'.S.'.F.G.z.d.O.O 5 F C B 9 9 : o . 4 4 4 4 & 4 q 8 N -.K.L.^.^.",
"'.K.I.B.h.3.$.G C E #./ O.h q X h 2 4 , & < & s 8 -   i m.K.K.^.",
"'.G.G.G.3.L S } E Z / E [ j h 4 & + 6 > , s , 5 & q 7 w i.N.F.L.",
"|.I.G.Z.@.C d | ^ v I T ( S G W s g C 1 @ s , > < q 8 7 i.K.L.B.",
"I.I.Z.d.] C x I T b l T I E S E [ ' [ d @ 3 @ , 5 & = # &.b.L.A.",
"G.V.j.@.` W 2.v v ~ v ~ x } E E S Z / Z a p @ 5 & 0 m % 7 ..m.F.",
"C.c.{ H } E ! ! T R ! ! R W Y S c Z Q E d @ @ s , h : q 9 : 4.Z.",
"x.u.` D ' W ! ! R R R R W Y Y W ! Q E Z a @ > 5 4 q & 4 9 : @.M.",
"x.=.H D W ! U T ^ T U R W U Y ' } ! T I z s 3 4 5 4 & : y : V M.",
"C.{ H D D _ x U ^ U x ! ! Y Y ' ! T U ! ' W g , q & 8 8 y : y C.",
"C.{ H D W ' S T ! U U ! ' W W W T v x ! } ' z , 5 & r e e : N Z.",
"M.>.L H ` [ W ! R T T ! ' ' W D ! U x x W W j 2 < & r 9 = w *.F.",
"M.y.] H [ W W ! W ! ! S W [ ` S _ R U S E W j 4 4 4 8 w * N s.F.",
"Z.z.+.L { A D S / } ' C G { { A D W ' ' ' ` M 4 8 e 7 w *  .A.F.",
"Z.C.f.3.) M F H G G G G H L L H k A D D A f : % 7 * # u ,.v.K.K.",
"G.G.Z.k.p.r.7.7.9.9.9.r.r.r.r.r.8.8.t.t.8.5.1.;.-.<.0.s.B.K.K.A.",
"G.I.G.G.F.Z.M.M.M.M.M.M.C.C.C.C.Z.Z.Z.Z.C.C.V.V.V.F.L.L.L.L.^.K.",
"E.|.G.G.G.G.G.Z.Z.Z.Z.F.G.G.G.G.G.G.G.G.G.G.G.I.L.L.L.S.B.F.'.'.",
"E.'.J.K.I.I.G.G.F.F.F.G.G.L.I.I.I.I.I.I.I.I.I.I.'.I.'.'.'.'.'.I.",
"E.E.E.'.'.'.I.F.G.G.L.L.I.'.'.'.'.'.'.'.'.'.'.E.'.'.'.'.'.'.I.D.",
"J.J.E.E.E.'.'.I.I.L.I.'.'.'.'.E.E.E.E.E.E.E.E.E.'.E.D.D.D.D.|.'.",
"J.E.E.E.J.E.'.'.'.'.'.'.'.'.'.E.E.J.J.J.J.E.E.E.J.J.'.'.'.E.E.'."
};
